<?xml version="1.0" encoding="UTF-8"?>
<!DOCTYPE svg PUBLIC "-//W3C//DTD SVG 1.1//EN" "http://www.w3.org/Graphics/SVG/1.1/DTD/svg11.dtd">
<!-- Creator: CorelDRAW -->
<svg xmlns="http://www.w3.org/2000/svg" xml:space="preserve" width="74.4652mm" height="25.0378mm" version="1.1" style="shape-rendering:geometricPrecision; text-rendering:geometricPrecision; image-rendering:optimizeQuality; fill-rule:evenodd; clip-rule:evenodd"
viewBox="0 0 53.8695 18.1128"
 xmlns:xlink="http://www.w3.org/1999/xlink"
 xmlns:xodm="http://www.corel.com/coreldraw/odm/2003">
 <defs>
  <style type="text/css">
   <![CDATA[
    .fil0 {fill:#00B2DB;fill-rule:nonzero}
   ]]>
  </style>
 </defs>
 <g id="Layer_x0020_1">
  <metadata id="CorelCorpID_0Corel-Layer"/>
  <g id="Cooper_x0020_Cricket_x0020_logo_x0020_-_x0020_blue.eps">
   <path class="fil0" d="M31.5147 4.6691l0.5933 0c0.3703,0.0025 0.6419,0.0814 0.8118,0.2402 0.1677,0.1554 0.2361,0.3726 0.2001,0.6497 -0.0352,0.2769 -0.1595,0.4918 -0.3668,0.6421 -0.2102,0.1537 -0.5015,0.2302 -0.8728,0.2328l-0.5931 0 0.2274 -1.7648zm11.1956 -0.074l-0.132 1.0231 -0.0087 0 -0.3491 2.7133 0.0085 0 -0.1435 1.1122 -3.2089 0 0.1432 -1.1122 1.2216 0c0.6276,0 1.1594,-0.4019 1.3309,-1.0058l0.4841 -1.7076 -2.6868 0 0.1319 -1.0231 3.2087 0zm3.7561 -0.1485l0.5928 0c0.3703,0.0028 0.6396,0.0967 0.8065,0.282 0.1639,0.1853 0.2269,0.4423 0.185,0.7707 -0.0426,0.3287 -0.1733,0.5811 -0.3891,0.7567 -0.2151,0.1753 -0.5038,0.2641 -0.8695,0.2664l-0.5933 0 0.2677 -2.0758zm-23.6545 4.5771c-0.3481,-0.0022 -0.6436,-0.0842 -0.8858,-0.2452 -0.2419,-0.1633 -0.4129,-0.3933 -0.5152,-0.6926 -0.1024,-0.2968 -0.1207,-0.6533 -0.0523,-1.0662 0.0727,-0.4134 0.213,-0.7697 0.418,-1.0719 0.2049,-0.3017 0.4553,-0.5344 0.7526,-0.6977 0.2983,-0.1659 0.6216,-0.2473 0.9708,-0.2501 0.3486,0.0028 0.6439,0.0842 0.8805,0.2501 0.2392,0.1633 0.4099,0.3961 0.5094,0.6977 0.0995,0.3022 0.1153,0.6585 0.0467,1.0719 -0.0727,0.4129 -0.211,0.7694 -0.4124,1.0662 -0.2023,0.2994 -0.4517,0.5293 -0.747,0.6926 -0.2927,0.161 -0.6153,0.243 -0.9652,0.2452zm-7.4829 0c-0.3486,-0.0022 -0.6438,-0.0842 -0.886,-0.2452 -0.2419,-0.1633 -0.4126,-0.3933 -0.5153,-0.6926 -0.1023,-0.2968 -0.1207,-0.6533 -0.0525,-1.0662 0.0732,-0.4134 0.213,-0.7697 0.4183,-1.0719 0.2052,-0.3017 0.455,-0.5344 0.7531,-0.6977 0.2976,-0.1659 0.6209,-0.2473 0.9703,-0.2501 0.3486,0.0028 0.6441,0.0842 0.8807,0.2501 0.2392,0.1633 0.4096,0.3961 0.5089,0.6977 0.0995,0.3022 0.1153,0.6585 0.0467,1.0719 -0.0727,0.4129 -0.2103,0.7694 -0.4124,1.0662 -0.2018,0.2994 -0.4517,0.5293 -0.7465,0.6926 -0.2927,0.161 -0.6161,0.243 -0.9652,0.2452zm1.2944 -7.5722c-0.7972,0.0028 -1.5649,0.1385 -2.2997,0.4108 -0.735,0.2746 -1.4164,0.6707 -2.0426,1.1928 -0.6102,0.5145 -1.107,1.1061 -1.4939,1.7768 -0.389,0.6679 -0.6496,1.398 -0.7874,2.1876 -0.0801,0.4762 -0.1074,0.9297 -0.0811,1.3602 -1.8416,1.2135 -4.9439,1.4797 -4.5963,-1.3531 0.0585,-0.4326 0.1955,-0.8057 0.4089,-1.1196 0.213,-0.3136 0.4866,-0.5558 0.8199,-0.7265 0.3313,-0.1705 0.7052,-0.2567 1.1183,-0.2596 0.3979,0 0.7705,0.0817 1.1127,0.247 0.342,0.1633 0.6658,0.4129 0.9688,0.7467 0.4976,-0.7738 0.9006,-1.5848 1.1673,-2.4507 0.211,-0.684 -0.1299,-1.4105 -0.7911,-1.6849 -1.332,-0.5533 -2.9897,-0.5274 -4.6221,0.0904 -0.7253,0.2766 -1.3756,0.6623 -1.9464,1.1638 -0.5735,0.4992 -1.0423,1.0874 -1.4088,1.7645 -0.3662,0.677 -0.6033,1.4205 -0.7125,2.229 -0.0796,0.6178 -0.0705,1.2009 0.0271,1.7473 0.0977,0.5459 0.2805,1.0453 0.5481,1.5024 1.9547,3.3442 6.4522,2.8686 9.3482,1.1314 0.3537,0.3126 0.7542,0.565 1.2012,0.7585 0.6408,0.2774 1.3613,0.4185 2.1575,0.4208 0.5272,0 1.0435,-0.0646 1.5517,-0.1881 0.5086,-0.1238 0.9951,-0.3068 1.4638,-0.5444 0.1511,-0.0763 0.2983,-0.1585 0.442,-0.2457 -0.3179,-0.8011 -0.5311,-1.48 -0.1824,-2.6294 0.1493,2.5469 1.7543,3.6002 4.2083,3.6076 0.5272,0 1.0428,-0.0646 1.5514,-0.1881 0.5089,-0.1238 0.9954,-0.3068 1.4641,-0.5444 0.4688,-0.2376 0.9047,-0.5298 1.3118,-0.8713 0.1363,-0.1143 0.2662,-0.2325 0.391,-0.3542l-0.0166 0.1312c-0.0528,0.4083 0.061,0.7809 0.3331,1.0905 0.2721,0.309 0.6271,0.4694 1.0392,0.4694l2.2369 0 0.4032 -3.1283 1.201 0c0.9389,0.002 1.7306,-0.1186 2.3798,-0.3637 0.2848,-0.1087 0.5429,-0.2444 0.7738,-0.4076l-0.3009 2.3398c-0.0528,0.4083 0.0608,0.7809 0.3334,1.0905 0.2718,0.309 0.6268,0.4694 1.0387,0.4694l9.1088 0 0.4512 -3.4994 1.0545 2.6309c0.2143,0.5354 0.7071,0.8685 1.2839,0.8685l3.3348 0 -2.2767 -4.3148c0.4196,-0.0521 0.7971,-0.1978 1.1339,-0.4323 0.3366,-0.2371 0.6148,-0.5512 0.8322,-0.9394 0.2183,-0.3879 0.3621,-0.835 0.4298,-1.3419 0.0982,-0.7585 0.0204,-1.4034 -0.2322,-1.935 -0.2527,-0.5314 -0.6778,-0.9366 -1.2771,-1.2158 -0.5987,-0.2795 -1.3712,-0.4203 -2.315,-0.4226l-11.7354 0 -0.1189 0.9236c-0.233,-0.2187 -0.5183,-0.3961 -0.8554,-0.5334 -0.6508,-0.2641 -1.4965,-0.3927 -2.5398,-0.3902l-4.5521 0 -0.1715 1.3327c-0.4471,-0.5201 -0.992,-0.9149 -1.6315,-1.1888 -0.6416,-0.2723 -1.3634,-0.408 -2.1593,-0.4108 -0.7972,0.0028 -1.5657,0.1385 -2.2996,0.4108 -0.4005,0.1496 -0.7845,0.3349 -1.1528,0.5574 0.3179,0.7998 0.5303,1.4784 0.1817,2.6266 -0.1503,-2.561 -1.752,-3.5874 -4.2127,-3.5948zm34.255 13.1415l-0.0799 0.6284 1.0961 0 -0.3484 2.8613 0.7976 0 0.3483 -2.8613 1.0976 0 0.0796 -0.6284 -2.991 0zm-2.6534 0l-0.4288 3.4897 2.4133 0 0.0748 -0.6278 -1.6104 0 0.1052 -0.8626 1.4207 0 0.0791 -0.6284 -1.4259 0 0.0896 -0.7426 1.5705 0 0.0755 -0.6284 -2.3637 0zm-3.8926 0.3341c0,0.1176 -0.0105,0.2649 -0.0947,0.3491 -0.145,-0.0449 -0.4392,-0.0799 -0.8925,-0.0799 -0.6929,0 -0.9024,0.0196 -1.017,0.4836 -0.0648,0.244 -0.1694,1.0767 -0.1694,1.3215 0,0.4535 0.199,0.4783 0.897,0.4783 0.4537,0 0.7427,-0.0449 0.9177,-0.0847 0.0862,0.0867 0.0293,0.3093 -0.0205,0.4165 -0.0857,0.1837 -0.3388,0.3014 -1.1512,0.3014 -1.1071,0 -1.4708,-0.0947 -1.4708,-0.9522 0,-0.394 0.1146,-1.2467 0.209,-1.6354 0.2195,-0.8675 0.6187,-0.9621 1.7005,-0.9621 0.9473,0 1.0918,0.1394 1.0918,0.364zm-4.0047 -0.3341l-0.429 3.4897 0.798 0 0.4288 -3.4897 -0.7978 0zm-0.8095 3.4897l-0.8973 0 -0.4936 -1.2911 -0.5637 0 -0.1595 1.2911 -0.7976 0 0.4285 -3.4897 1.566 0c0.9072,0 1.1813,0.1348 1.1813,0.7079 0,0.2044 -0.06,0.6781 -0.1296,0.9024 -0.1164,0.3438 -0.3177,0.4997 -0.7268,0.5584 0.196,0.441 0.3919,0.8818 0.5923,1.321zm-0.5533 -2.6072c0,-0.2442 -0.1151,-0.2541 -0.4737,-0.2541l-0.7378 0 -0.1148 0.942 0.738 0c0.3488,0 0.4584,-0.0097 0.5232,-0.2193 0.0349,-0.1345 0.0651,-0.3491 0.0651,-0.4686zm7.5357 0.965l-0.1338 -0.2238 0.1286 -0.1572c0.0107,-0.0123 0.0215,-0.0255 0.0322,-0.0394l0.5117 -0.6255 0 0 0.6556 -0.8018 -0.9321 0 -0.9075 1.1867c-0.0799,0.1049 -0.1297,0.145 -0.4688,0.1544l0.1646 -1.3411 -0.7977 0 -0.4286 3.4899 0.7978 0 0.1843 -1.4955c0.3438,0.0051 0.4188,0.025 0.4686,0.1396l0.7131 1.3559 0.992 0 -0.7118 -1.1928 -0.2401 -0.4022 -0.0008 -0.0012c-0.0089,-0.0163 -0.0181,-0.0317 -0.0273,-0.0459zm-26.2467 -15.3861c0.3443,-0.1879 0.7021,-0.3514 1.0701,-0.4887 0.8938,-0.3323 1.8291,-0.4979 2.7828,-0.4979 0.9279,0 1.8459,0.157 2.7021,0.5222 0.0033,0.0013 0.0067,0.003 0.0105,0.0043l0.0332 -0.2593 5.7687 0c0.7457,0 1.5281,0.0561 2.2672,0.2376l0.0307 -0.2376 12.9516 0c0.981,0 2.0029,0.134 2.8994,0.5523 0.8557,0.3984 1.5359,1.0205 1.9419,1.8752 0.404,0.8496 0.476,1.7867 0.3548,2.7095 -0.0852,0.6462 -0.2754,1.2705 -0.5957,1.8398 -0.309,0.551 -0.7217,1.0265 -1.2395,1.3906l2.6378 5.0013 -5.6283 0c-0.5546,0 -1.0767,-0.1598 -1.5151,-0.4461l-0.0582 0.4461 -10.3251 0c-0.8098,0 -1.5425,-0.3318 -2.0772,-0.9391 -0.5326,-0.6048 -0.7699,-1.3817 -0.6671,-2.181l0.0146 -0.1115c-0.4908,0.0732 -0.9892,0.1023 -1.4792,0.1033l-0.4035 3.1283 -3.4535 0c-0.7707,0 -1.4717,-0.2999 -1.9985,-0.8524 -0.1422,0.0835 -0.2871,0.1628 -0.4346,0.2374 -0.5614,0.2848 -1.1505,0.5055 -1.7624,0.6546 -0.6166,0.15 -1.2457,0.2284 -1.8804,0.2276 -1.4348,-0.0025 -2.6756,-0.3315 -3.6219,-0.9968 -0.0723,0.0393 -0.145,0.0776 -0.2185,0.1146 -0.5612,0.2848 -1.1502,0.5058 -1.7622,0.6546 -0.6169,0.15 -1.2457,0.2284 -1.8809,0.2276 -0.9307,-0.0017 -1.8482,-0.1643 -2.7049,-0.5346 -0.2644,-0.1144 -0.5191,-0.2465 -0.7631,-0.3961 -3.5203,1.7144 -8.2383,1.6856 -10.4315,-2.0651 -0.3548,-0.6074 -0.5915,-1.2655 -0.7151,-1.9577 -0.1283,-0.7163 -0.132,-1.4508 -0.037,-2.1713 0.1255,-0.9509 0.4103,-1.8627 0.8669,-2.707 0.4421,-0.8164 1.0163,-1.5363 1.7153,-2.1473 0.7,-0.6127 1.4955,-1.0851 2.3657,-1.4157 1.7939,-0.6819 3.8457,-0.8212 5.6439,-0.075 0.5454,0.2266 0.982,0.6082 1.2773,1.0747 0.5883,-0.4176 1.2255,-0.7572 1.9061,-1.0101 0.8935,-0.3323 1.8286,-0.4979 2.7823,-0.4979 1.4404,0 2.6835,0.3244 3.6305,0.9867zm16.36 13.8727c0,0.1176 -0.0105,0.2649 -0.0945,0.3491 -0.1449,-0.0449 -0.4392,-0.0799 -0.8924,-0.0799 -0.6929,0 -0.9024,0.0196 -1.017,0.4836 -0.0651,0.244 -0.1695,1.0767 -0.1695,1.3215 0,0.4535 0.1991,0.4783 0.897,0.4783 0.4538,0 0.7427,-0.0449 0.9175,-0.0847 0.0862,0.0867 0.0296,0.3093 -0.0205,0.4165 -0.0854,0.1837 -0.3386,0.3014 -1.1512,0.3014 -1.1068,0 -1.4708,-0.0947 -1.4708,-0.9522 0,-0.394 0.1146,-1.2467 0.2093,-1.6354 0.2192,-0.8675 0.6186,-0.9621 1.7004,-0.9621 0.9471,0 1.0916,0.1394 1.0916,0.364z"/>
  </g>
 </g>
</svg>
