<?xml version="1.0" encoding="UTF-8"?>
<!DOCTYPE svg PUBLIC "-//W3C//DTD SVG 1.1//EN" "http://www.w3.org/Graphics/SVG/1.1/DTD/svg11.dtd">
<!-- Creator: CorelDRAW -->
<svg xmlns="http://www.w3.org/2000/svg" xml:space="preserve" width="74.465mm" height="25.0378mm" version="1.1" style="shape-rendering:geometricPrecision; text-rendering:geometricPrecision; image-rendering:optimizeQuality; fill-rule:evenodd; clip-rule:evenodd"
viewBox="0 0 57.1175 19.205"
 xmlns:xlink="http://www.w3.org/1999/xlink"
 xmlns:xodm="http://www.corel.com/coreldraw/odm/2003">
 <defs>
  <style type="text/css">
   <![CDATA[
    .fil0 {fill:#373435;fill-rule:nonzero}
   ]]>
  </style>
 </defs>
 <g id="Layer_x0020_1">
  <metadata id="CorelCorpID_0Corel-Layer"/>
  <g id="Cooper_x0020_Cricket_x0020_logo_x0020_-_x0020_black.eps">
   <path class="fil0" d="M33.4151 4.9506l0.6289 0c0.3926,0.0027 0.6805,0.0863 0.8607,0.2547 0.1778,0.1648 0.2504,0.395 0.2122,0.6889 -0.037,0.2936 -0.1691,0.5214 -0.3888,0.6808 -0.223,0.1629 -0.5317,0.2441 -0.9254,0.2468l-0.6289 0 0.2414 -1.8712zm11.8707 -0.0785l-0.1399 1.0848 -0.0092 0 -0.3704 2.8769 0.0089 0 -0.152 1.1792 -3.4025 0 0.1518 -1.1792 1.2954 0c0.6654,0 1.2293,-0.4262 1.4111,-1.0664l0.5133 -1.8105 -2.8488 0 0.1399 -1.0848 3.4024 0zm3.9823 -0.1575l0.6286 0c0.3926,0.003 0.6784,0.1026 0.8551,0.299 0.1737,0.1964 0.2405,0.469 0.1962,0.8172 -0.0452,0.3485 -0.1837,0.6162 -0.4127,0.8023 -0.2281,0.1859 -0.5342,0.28 -0.9219,0.2825l-0.6291 0 0.2838 -2.201zm-25.0808 4.8531c-0.3691,-0.0024 -0.6824,-0.0893 -0.9392,-0.26 -0.2565,-0.1732 -0.4376,-0.417 -0.5464,-0.7344 -0.1085,-0.3147 -0.1279,-0.6927 -0.0555,-1.1305 0.0774,-0.4384 0.2262,-0.8161 0.4433,-1.1365 0.2172,-0.3199 0.4827,-0.5666 0.7983,-0.7398 0.316,-0.1759 0.6589,-0.2622 1.0291,-0.2652 0.3696,0.003 0.683,0.0893 0.9335,0.2652 0.2536,0.1732 0.4346,0.42 0.5401,0.7398 0.1055,0.3204 0.1223,0.6982 0.0496,1.1365 -0.0769,0.4378 -0.2235,0.8158 -0.4373,1.1305 -0.2146,0.3174 -0.479,0.5612 -0.7918,0.7344 -0.3103,0.1707 -0.6527,0.2576 -1.0236,0.26zm-7.9341 0c-0.3696,-0.0024 -0.6827,-0.0893 -0.9395,-0.26 -0.2565,-0.1732 -0.4375,-0.417 -0.5461,-0.7344 -0.1088,-0.3147 -0.1282,-0.6927 -0.056,-1.1305 0.0779,-0.4384 0.2262,-0.8161 0.4435,-1.1365 0.2175,-0.3199 0.4825,-0.5666 0.7986,-0.7398 0.3155,-0.1759 0.6583,-0.2622 1.0288,-0.2652 0.3696,0.003 0.683,0.0893 0.9339,0.2652 0.2535,0.1732 0.4343,0.42 0.5398,0.7398 0.1053,0.3204 0.122,0.6982 0.0492,1.1365 -0.0768,0.4378 -0.2229,0.8158 -0.4372,1.1305 -0.2141,0.3174 -0.479,0.5612 -0.7915,0.7344 -0.3104,0.1707 -0.653,0.2576 -1.0234,0.26zm1.3727 -8.0287c-0.8456,0.003 -1.6596,0.1469 -2.4386,0.4356 -0.7791,0.2912 -1.5018,0.7111 -2.1658,1.2648 -0.647,0.5455 -1.1739,1.1728 -1.5841,1.8839 -0.4121,0.7081 -0.6886,1.4823 -0.8348,2.3195 -0.0847,0.5049 -0.1139,0.9858 -0.0861,1.4423 -1.9526,1.2866 -5.2419,1.5689 -4.8734,-1.4347 0.0619,-0.4587 0.2075,-0.8543 0.4335,-1.1871 0.2262,-0.3325 0.5163,-0.5893 0.8694,-0.7703 0.3512,-0.1808 0.7476,-0.2722 1.1858,-0.2752 0.4218,0 0.8171,0.0866 1.1798,0.2619 0.3626,0.1732 0.706,0.4378 1.0271,0.7917 0.5276,-0.8204 0.9552,-1.6804 1.2377,-2.5985 0.2238,-0.7252 -0.1377,-1.4956 -0.8388,-1.7865 -1.4122,-0.5866 -3.17,-0.5592 -4.9007,0.0958 -0.769,0.2933 -1.4583,0.7022 -2.0636,1.2339 -0.6083,0.5293 -1.1054,1.153 -1.494,1.8709 -0.3884,0.7179 -0.6397,1.5062 -0.7555,2.3634 -0.0844,0.6551 -0.0746,1.2734 0.029,1.8527 0.1033,0.5788 0.2971,1.1084 0.581,1.593 2.0725,3.5459 6.8411,3.0415 9.9118,1.1996 0.3751,0.3314 0.7999,0.5991 1.2737,0.8042 0.6794,0.2941 1.4433,0.4437 2.2875,0.4462 0.5591,0 1.1065,-0.0685 1.6452,-0.1994 0.5393,-0.1312 1.0551,-0.3253 1.5522,-0.5772 0.1602,-0.0809 0.3163,-0.1681 0.4687,-0.2606 -0.3372,-0.8494 -0.5632,-1.5692 -0.1935,-2.788 0.1583,2.7005 1.8601,3.8173 4.4621,3.8251 0.5591,0 1.106,-0.0685 1.6452,-0.1994 0.5393,-0.1312 1.0551,-0.3253 1.5522,-0.5772 0.497,-0.2519 0.9593,-0.5618 1.3908,-0.9238 0.1445,-0.1212 0.2823,-0.2465 0.4146,-0.3755l-0.0176 0.1391c-0.0561,0.4329 0.0647,0.828 0.3534,1.1562 0.2882,0.3277 0.6646,0.4977 1.1016,0.4977l2.3718 0 0.4278 -3.317 1.2731 0c0.9955,0.0021 1.8349,-0.1258 2.5233,-0.3856 0.302,-0.1153 0.5755,-0.2592 0.8204,-0.4321l-0.319 2.4808c-0.0561,0.4329 0.0644,0.828 0.3534,1.1562 0.2882,0.3277 0.6646,0.4977 1.1013,0.4977l9.6583 0 0.4782 -3.7104 1.118 2.7896c0.2276,0.5677 0.7499,0.9208 1.3614,0.9208l3.5358 0 -2.4139 -4.5749c0.4448,-0.0552 0.845,-0.2097 1.2025,-0.4584 0.3567,-0.2514 0.6516,-0.5845 0.8822,-0.9961 0.2313,-0.4113 0.384,-0.8854 0.4557,-1.4228 0.1042,-0.8042 0.0216,-1.488 -0.2463,-2.0517 -0.2676,-0.5634 -0.7187,-0.9931 -1.3541,-1.2891 -0.6348,-0.2963 -1.4538,-0.4456 -2.4545,-0.4481l-12.443 0 -0.126 0.9793c-0.2471,-0.2319 -0.5496,-0.42 -0.9071,-0.5655 -0.6897,-0.28 -1.5867,-0.4164 -2.6929,-0.4137l-4.8266 0 -0.1816 1.413c-0.4743,-0.5515 -1.0521,-0.9701 -1.7302,-1.2605 -0.6803,-0.2887 -1.4455,-0.4326 -2.2892,-0.4356 -0.8456,0.003 -1.6601,0.1469 -2.4386,0.4356 -0.4243,0.1586 -0.8318,0.3551 -1.2223,0.591 0.3372,0.848 0.5625,1.5676 0.1929,2.785 -0.1594,-2.7154 -1.8578,-3.8037 -4.4667,-3.8116zm36.3203 13.9339l-0.0848 0.6662 1.1625 0 -0.3696 3.0339 0.8456 0 0.3696 -3.0339 1.1636 0 0.0844 -0.6662 -3.1713 0zm-2.8134 0l-0.4545 3.7001 2.5587 0 0.0796 -0.6656 -1.7075 0 0.1112 -0.9146 1.5064 0 0.0839 -0.6662 -1.5115 0 0.0947 -0.7874 1.6652 0 0.0802 -0.6662 -2.5063 0zm-4.1274 0.3542c0,0.1247 -0.011,0.2809 -0.1004,0.3702 -0.1536,-0.0476 -0.4654,-0.0847 -0.946,-0.0847 -0.7349,0 -0.9571,0.0208 -1.0785,0.5128 -0.0688,0.2587 -0.1797,1.1417 -0.1797,1.4011 0,0.4809 0.2113,0.5071 0.9514,0.5071 0.4809,0 0.7874,-0.0476 0.9728,-0.0898 0.0914,0.092 0.0314,0.3279 -0.0216,0.4416 -0.0907,0.1948 -0.3594,0.3195 -1.2207,0.3195 -1.1738,0 -1.5595,-0.1004 -1.5595,-1.0096 0,-0.4178 0.1215,-1.3218 0.2219,-1.734 0.2325,-0.9198 0.6557,-1.0202 1.8027,-1.0202 1.0044,0 1.1576,0.1478 1.1576,0.3859zm-4.2462 -0.3542l-0.4545 3.7001 0.8461 0 0.4543 -3.7001 -0.8459 0zm-0.8583 3.7001l-0.9514 0 -0.5233 -1.3689 -0.5975 0 -0.1691 1.3689 -0.8457 0 0.4543 -3.7001 1.6601 0c0.962,0 1.2526,0.1429 1.2526,0.7506 0,0.2168 -0.0636,0.719 -0.1375,0.9568 -0.1233,0.3645 -0.3366,0.5299 -0.7706,0.5921 0.2079,0.4676 0.4157,0.9349 0.6281,1.4006zm-0.5866 -2.7644c0,-0.259 -0.122,-0.2695 -0.5023,-0.2695l-0.7822 0 -0.1218 0.9988 0.7825 0c0.3702,0 0.486,-0.0103 0.5547,-0.2325 0.0374,-0.1426 0.069,-0.3702 0.069,-0.4968zm7.9901 1.0232l-0.1417 -0.2373 0.1364 -0.1667c0.0116,-0.013 0.0227,-0.0271 0.0344,-0.0417l0.5422 -0.6632 0 0 0.6952 -0.8502 -0.9882 0 -0.9622 1.2582c-0.0847,0.1112 -0.1375,0.1537 -0.4971,0.1637l0.1746 -1.4219 -0.8456 0 -0.4546 3.7003 0.8459 0 0.1954 -1.5857c0.3647,0.0054 0.444,0.0265 0.4968,0.148l0.756 1.4377 1.0521 0 -0.7549 -1.2648 -0.2547 -0.4265 -0.0008 -0.0013c-0.0095,-0.0173 -0.0193,-0.0336 -0.029,-0.0487zm-27.8292 -16.3138c0.3653,-0.1992 0.7444,-0.3726 1.1346,-0.5182 0.9476,-0.3523 1.9396,-0.528 2.9508,-0.528 0.9836,0 1.9569,0.1664 2.865,0.5536 0.0033,0.0014 0.0068,0.0032 0.0108,0.0046l0.0352 -0.2749 6.1165 0c0.791,0 1.6203,0.0595 2.404,0.2519l0.0324 -0.2519 13.7327 0c1.0404,0 2.1236,0.1421 3.0742,0.5856 0.9073,0.4224 1.6284,1.0821 2.059,1.9883 0.4283,0.9008 0.5046,1.8944 0.3761,2.8729 -0.0901,0.6852 -0.2919,1.3471 -0.6315,1.9507 -0.3278,0.5843 -0.7653,1.0884 -1.3143,1.4745l2.7969 5.3028 -5.9676 0c-0.588,0 -1.1417,-0.1694 -1.6066,-0.473l-0.0617 0.473 -10.9477 0c-0.8586,0 -1.6355,-0.3518 -2.2024,-0.9958 -0.5647,-0.6413 -0.8164,-1.465 -0.7073,-2.3125l0.0154 -0.1182c-0.5204,0.0776 -1.0488,0.1085 -1.5684,0.1095l-0.4279 3.317 -3.6616 0c-0.817,0 -1.5605,-0.3179 -2.1188,-0.9038 -0.151,0.0885 -0.3044,0.1727 -0.4611,0.2517 -0.5953,0.302 -1.2198,0.536 -1.8685,0.6941 -0.654,0.1591 -1.321,0.2422 -1.994,0.2413 -1.5213,-0.0027 -2.8369,-0.3515 -3.8403,-1.0569 -0.0763,0.0417 -0.1537,0.0822 -0.2316,0.1215 -0.595,0.302 -1.2193,0.5363 -1.8682,0.6941 -0.6543,0.1591 -1.321,0.2422 -1.9945,0.2413 -0.9866,-0.0018 -1.9596,-0.1742 -2.868,-0.5668 -0.2803,-0.1213 -0.5503,-0.2614 -0.8088,-0.42 -3.7326,1.8178 -8.735,1.7873 -11.0608,-2.1897 -0.3761,-0.644 -0.627,-1.3419 -0.7581,-2.0758 -0.1358,-0.7595 -0.1399,-1.5383 -0.0393,-2.3022 0.1332,-1.0083 0.4351,-1.975 0.9194,-2.8702 0.4687,-0.8657 1.0772,-1.629 1.8184,-2.2768 0.7425,-0.6497 1.5857,-1.1506 2.5084,-1.501 1.9019,-0.723 4.0776,-0.8707 5.9841,-0.0795 0.5783,0.2403 1.0413,0.6448 1.3544,1.1395 0.6237,-0.4427 1.2997,-0.8029 2.0211,-1.071 0.9474,-0.3523 1.9388,-0.528 2.9503,-0.528 1.5272,0 2.845,0.3439 3.8492,1.0462zm17.3467 14.7092c0,0.1247 -0.0111,0.2809 -0.1004,0.3702 -0.1537,-0.0476 -0.4657,-0.0847 -0.9463,-0.0847 -0.7347,0 -0.9568,0.0208 -1.0783,0.5128 -0.0687,0.2587 -0.1797,1.1417 -0.1797,1.4011 0,0.4809 0.2111,0.5071 0.9512,0.5071 0.4811,0 0.7874,-0.0476 0.9731,-0.0898 0.0911,0.092 0.0311,0.3279 -0.0219,0.4416 -0.0907,0.1948 -0.3591,0.3195 -1.2204,0.3195 -1.1738,0 -1.5594,-0.1004 -1.5594,-1.0096 0,-0.4178 0.1212,-1.3218 0.2216,-1.734 0.2327,-0.9198 0.6559,-1.0202 1.803,-1.0202 1.0044,0 1.1576,0.1478 1.1576,0.3859z"/>
  </g>
 </g>
</svg>
