<?xml version="1.0" encoding="UTF-8"?>
<!DOCTYPE svg PUBLIC "-//W3C//DTD SVG 1.1//EN" "http://www.w3.org/Graphics/SVG/1.1/DTD/svg11.dtd">
<!-- Creator: CorelDRAW -->
<svg xmlns="http://www.w3.org/2000/svg" xml:space="preserve" width="74.4653mm" height="25.0378mm" version="1.1" style="shape-rendering:geometricPrecision; text-rendering:geometricPrecision; image-rendering:optimizeQuality; fill-rule:evenodd; clip-rule:evenodd"
viewBox="0 0 55.9924 18.8266"
 xmlns:xlink="http://www.w3.org/1999/xlink"
 xmlns:xodm="http://www.corel.com/coreldraw/odm/2003">
 <defs>
  <style type="text/css">
   <![CDATA[
    .fil0 {fill:#FEFEFE;fill-rule:nonzero}
   ]]>
  </style>
 </defs>
 <g id="Layer_x0020_1">
  <metadata id="CorelCorpID_0Corel-Layer"/>
  <g id="Cooper_x0020_Cricket_x0020_logo_x0020_-_x0020_white.eps">
   <path class="fil0" d="M32.7567 4.8531l0.6164 0c0.3849,0.0026 0.6672,0.0846 0.8441,0.2496 0.174,0.1615 0.2451,0.3872 0.208,0.6753 -0.0366,0.2878 -0.1661,0.5112 -0.3812,0.6674 -0.2188,0.1597 -0.5215,0.2393 -0.9074,0.242l-0.6165 0 0.2366 -1.8343zm11.6368 -0.0769l-0.1372 1.0634 -0.009 0 -0.3631 2.8202 0.0087 0 -0.1488 1.156 -3.3354 0 0.1485 -1.156 1.2699 0c0.6523,0 1.2053,-0.4178 1.3836,-1.0454l0.5032 -1.7748 -2.793 0 0.1372 -1.0634 3.3354 0zm3.9038 -0.1544l0.6165 0c0.3846,0.0029 0.6647,0.1005 0.8379,0.2931 0.1703,0.1926 0.2358,0.4597 0.1923,0.8011 -0.0441,0.3417 -0.1802,0.604 -0.4045,0.7865 -0.2236,0.1822 -0.5236,0.2745 -0.9037,0.2769l-0.6165 0 0.278 -2.1577zm-24.5864 4.7574c-0.3618,-0.0023 -0.6692,-0.0875 -0.921,-0.2549 -0.2512,-0.1698 -0.429,-0.4087 -0.5356,-0.7199 -0.1064,-0.3085 -0.1252,-0.6791 -0.0544,-1.1083 0.0759,-0.4297 0.2217,-0.8 0.4345,-1.1141 0.2133,-0.3136 0.4733,-0.5554 0.7825,-0.7252 0.3099,-0.1724 0.646,-0.257 1.0089,-0.2599 0.3623,0.0029 0.6695,0.0875 0.9151,0.2599 0.2488,0.1698 0.426,0.4117 0.5295,0.7252 0.1035,0.3141 0.1199,0.6844 0.0488,1.1141 -0.0756,0.4292 -0.2194,0.7997 -0.4287,1.1083 -0.2104,0.3111 -0.4698,0.5501 -0.7764,0.7199 -0.3042,0.1674 -0.6398,0.2526 -1.0032,0.2549zm-7.778 0c-0.3621,-0.0023 -0.6693,-0.0875 -0.921,-0.2549 -0.2514,-0.1698 -0.4289,-0.4087 -0.5353,-0.7199 -0.1066,-0.3085 -0.1257,-0.6791 -0.0549,-1.1083 0.0764,-0.4297 0.2215,-0.8 0.4348,-1.1141 0.2132,-0.3136 0.4732,-0.5554 0.7828,-0.7252 0.3096,-0.1724 0.6454,-0.257 1.0089,-0.2599 0.3621,0.0029 0.6692,0.0875 0.9151,0.2599 0.2486,0.1698 0.4257,0.4117 0.5292,0.7252 0.1032,0.3141 0.1196,0.6844 0.0486,1.1141 -0.0759,0.4292 -0.2189,0.7997 -0.429,1.1083 -0.2098,0.3111 -0.4692,0.5501 -0.7758,0.7199 -0.3043,0.1674 -0.6401,0.2526 -1.0032,0.2549zm1.3456 -7.8706c-0.8289,0.0029 -1.6269,0.144 -2.3905,0.427 -0.7637,0.2854 -1.4722,0.6971 -2.1229,1.2399 -0.6346,0.5348 -1.151,1.1497 -1.5531,1.8468 -0.404,0.6942 -0.6751,1.4531 -0.8181,2.2738 -0.0833,0.495 -0.112,0.9664 -0.0844,1.4138 -1.9144,1.2613 -5.1388,1.538 -4.7777,-1.4064 0.0608,-0.4497 0.2032,-0.8375 0.425,-1.1638 0.2217,-0.326 0.5058,-0.5777 0.8523,-0.7552 0.3443,-0.1772 0.7331,-0.2669 1.1626,-0.2698 0.4136,0 0.8008,0.0849 1.1563,0.2568 0.3554,0.1698 0.6921,0.4292 1.0069,0.7761 0.5172,-0.8043 0.9364,-1.6472 1.2136,-2.5473 0.2191,-0.7109 -0.135,-1.4661 -0.8226,-1.7513 -1.3841,-0.5751 -3.1076,-0.5482 -4.8042,0.0939 -0.7538,0.2875 -1.4296,0.6884 -2.023,1.2096 -0.5961,0.5188 -1.0834,1.1303 -1.4642,1.834 -0.3809,0.7037 -0.6271,1.4765 -0.7408,2.3168 -0.0826,0.6421 -0.0732,1.2483 0.0283,1.8162 0.1015,0.5674 0.2914,1.0865 0.5696,1.5616 2.0318,3.476 6.7064,2.9816 9.7166,1.1759 0.3677,0.3249 0.7839,0.5873 1.2486,0.7884 0.6661,0.2883 1.415,0.435 2.2425,0.4374 0.5481,0 1.0847,-0.0671 1.6128,-0.1955 0.5287,-0.1287 1.0343,-0.3189 1.5216,-0.5658 0.157,-0.0793 0.3101,-0.1647 0.4594,-0.2554 -0.3305,-0.8327 -0.5521,-1.5383 -0.1894,-2.733 0.1549,2.6473 1.8234,3.7421 4.3739,3.7498 0.5481,0 1.0841,-0.0671 1.6128,-0.1955 0.5287,-0.1287 1.0343,-0.3189 1.5216,-0.5658 0.4872,-0.2469 0.9404,-0.5507 1.3634,-0.9056 0.1417,-0.1188 0.2767,-0.2417 0.4066,-0.3681l-0.0174 0.1363c-0.055,0.4244 0.0634,0.8117 0.3461,1.1335 0.2828,0.3212 0.6518,0.4878 1.0801,0.4878l2.325 0 0.4194 -3.2516 1.2483 0c0.9756,0.0021 1.7985,-0.1233 2.4735,-0.378 0.296,-0.113 0.5639,-0.2541 0.8043,-0.4236l-0.313 2.432c-0.055,0.4244 0.0631,0.8117 0.3464,1.1335 0.2825,0.3212 0.6515,0.4878 1.0796,0.4878l9.468 0 0.469 -3.6373 1.0961 2.7346c0.2228,0.5565 0.735,0.9027 1.3342,0.9027l3.4665 0 -2.3664 -4.4848c0.4358,-0.0541 0.8282,-0.2056 1.1786,-0.4494 0.3496,-0.2465 0.639,-0.573 0.8648,-0.9765 0.2268,-0.4032 0.3764,-0.8679 0.4466,-1.3947 0.1024,-0.7884 0.0215,-1.4587 -0.2414,-2.0113 -0.2626,-0.5523 -0.7046,-0.9735 -1.3274,-1.2637 -0.6221,-0.2905 -1.4253,-0.4369 -2.4062,-0.4393l-12.1976 0 -0.1236 0.96c-0.2424,-0.2273 -0.5391,-0.4117 -0.8892,-0.5544 -0.6764,-0.2745 -1.5558,-0.4082 -2.6399,-0.4056l-4.7317 0 -0.1783 1.3852c-0.4647,-0.5406 -1.031,-0.951 -1.6958,-1.2356 -0.6669,-0.283 -1.417,-0.4241 -2.2441,-0.427 -0.8289,0.0029 -1.6274,0.144 -2.3905,0.427 -0.416,0.1555 -0.8155,0.3481 -1.198,0.5794 0.3302,0.8313 0.5512,1.5367 0.1889,2.7301 -0.1563,-2.6619 -1.821,-3.7288 -4.3787,-3.7365zm35.6047 13.6594l-0.0831 0.6531 1.1396 0 -0.3624 2.9741 0.8289 0 0.3624 -2.9741 1.1406 0 0.0831 -0.6531 -3.1091 0zm-2.758 0l-0.4456 3.6272 2.5086 0 0.0777 -0.6525 -1.6738 0 0.109 -0.8966 1.4767 0 0.0823 -0.6531 -1.4817 0 0.0931 -0.7719 1.6321 0 0.0785 -0.6531 -2.4568 0zm-4.046 0.3472c0,0.1223 -0.0109,0.2754 -0.0984,0.3629 -0.1507,-0.0467 -0.4563,-0.083 -0.9273,-0.083 -0.7202,0 -0.9383,0.0204 -1.0574,0.5027 -0.0674,0.2536 -0.1761,1.1192 -0.1761,1.3735 0,0.4714 0.2072,0.4971 0.9327,0.4971 0.4716,0 0.7719,-0.0467 0.9536,-0.0881 0.0896,0.0902 0.0305,0.3214 -0.0212,0.4329 -0.0889,0.191 -0.3523,0.3133 -1.1966,0.3133 -1.1504,0 -1.5287,-0.0984 -1.5287,-0.9897 0,-0.4096 0.1191,-1.2958 0.2175,-1.6998 0.2281,-0.9016 0.6427,-1.0001 1.7672,-1.0001 0.9846,0 1.1348,0.1449 1.1348,0.3783zm-4.1625 -0.3472l-0.4457 3.6272 0.8295 0 0.4454 -3.6272 -0.8292 0zm-0.8411 3.6272l-0.933 0 -0.513 -1.342 -0.586 0 -0.1656 1.342 -0.8289 0 0.4454 -3.6272 1.6274 0c0.943,0 1.2279,0.1401 1.2279,0.7358 0,0.2125 -0.0623,0.7049 -0.1344,0.938 -0.1213,0.3573 -0.3302,0.5194 -0.7558,0.5804 0.204,0.4584 0.4075,0.9165 0.616,1.373zm-0.5754 -2.7099c0,-0.2539 -0.1196,-0.2642 -0.4924,-0.2642l-0.7669 0 -0.1191 0.9791 0.7669 0c0.3629,0 0.4764,-0.0101 0.5438,-0.2279 0.0366,-0.1398 0.0677,-0.3629 0.0677,-0.487zm7.8327 1.003l-0.1387 -0.2326 0.1337 -0.1634c0.0109,-0.0128 0.0223,-0.0265 0.0332,-0.0409l0.5321 -0.6501 -0.0003 0 0.6815 -0.8334 -0.9687 0 -0.9433 1.2335c-0.083,0.109 -0.1345,0.1507 -0.487,0.1605l0.1708 -1.3939 -0.8292 0 -0.4451 3.6274 0.829 0 0.1917 -1.5545c0.3573,0.0053 0.4353,0.026 0.4868,0.1451l0.7414 1.4093 1.031 0 -0.74 -1.2399 -0.2496 -0.4181 -0.0008 -0.0013c-0.0092,-0.017 -0.0188,-0.0329 -0.0283,-0.0477zm-27.2807 -15.9924c0.3578,-0.1953 0.7295,-0.3653 1.1122,-0.508 0.9289,-0.3454 1.9012,-0.5176 2.8924,-0.5176 0.9643,0 1.9186,0.1632 2.8086,0.5427 0.0032,0.0014 0.0066,0.0032 0.0106,0.0045l0.0345 -0.2695 5.9962 0c0.7752,0 1.5881,0.0583 2.3564,0.2469l0.0318 -0.2469 13.4621 0c1.0199,0 2.0818,0.1393 3.0139,0.574 0.8892,0.4141 1.5961,1.0607 2.0184,1.9491 0.4196,0.8831 0.4945,1.8571 0.3684,2.8163 -0.0884,0.6717 -0.2862,1.3205 -0.6191,1.9123 -0.3212,0.5727 -0.7501,1.0669 -1.2883,1.4454l2.742 5.1984 -5.8504 0c-0.5764,0 -1.1191,-0.1661 -1.5748,-0.4637l-0.0602 0.4637 -10.7322 0c-0.8417,0 -1.6033,-0.3448 -2.159,-0.9761 -0.5536,-0.6287 -0.8,-1.4362 -0.6934,-2.267l0.0151 -0.1159c-0.5101,0.0761 -1.0279,0.1063 -1.5375,0.1074l-0.4194 3.2516 -3.5895 0c-0.8008,0 -1.5295,-0.3117 -2.077,-0.886 -0.1481,0.0868 -0.2984,0.1693 -0.4518,0.2467 -0.5838,0.296 -1.1958,0.5254 -1.8319,0.6804 -0.6411,0.1559 -1.295,0.2374 -1.9547,0.2366 -1.4913,-0.0026 -2.7808,-0.3445 -3.7646,-1.0361 -0.0748,0.0408 -0.1507,0.0806 -0.2271,0.1191 -0.5833,0.296 -1.1956,0.5257 -1.8314,0.6804 -0.6414,0.1559 -1.2947,0.2374 -1.9549,0.2366 -0.9674,-0.0018 -1.9213,-0.1708 -2.8118,-0.5557 -0.2745,-0.1189 -0.5395,-0.2563 -0.7928,-0.4117 -3.6591,1.782 -8.5631,1.7521 -10.8428,-2.1465 -0.3687,-0.6313 -0.6148,-1.3154 -0.7435,-2.0349 -0.133,-0.7446 -0.1369,-1.508 -0.0382,-2.2568 0.1302,-0.9884 0.4265,-1.9361 0.9012,-2.8136 0.4594,-0.8486 1.0562,-1.5969 1.7825,-2.2319 0.7279,-0.6369 1.5546,-1.1279 2.4591,-1.4714 1.8645,-0.7088 3.9972,-0.8536 5.8662,-0.078 0.5672,0.2356 1.0207,0.6321 1.3279,1.1171 0.6112,-0.434 1.2738,-0.787 1.981,-1.0499 0.9286,-0.3454 1.9009,-0.5176 2.8921,-0.5176 1.4972,0 2.789,0.3372 3.7736,1.0256zm17.0046 14.4194c0,0.1223 -0.0108,0.2754 -0.0984,0.3629 -0.1507,-0.0467 -0.4563,-0.083 -0.9274,-0.083 -0.7204,0 -0.9382,0.0204 -1.0573,0.5027 -0.0674,0.2536 -0.1762,1.1192 -0.1762,1.3735 0,0.4714 0.2072,0.4971 0.9327,0.4971 0.4714,0 0.7719,-0.0467 0.9536,-0.0881 0.0897,0.0902 0.0305,0.3214 -0.0212,0.4329 -0.0891,0.191 -0.3523,0.3133 -1.1966,0.3133 -1.1507,0 -1.5287,-0.0984 -1.5287,-0.9897 0,-0.4096 0.1191,-1.2958 0.2172,-1.6998 0.2281,-0.9016 0.643,-1.0001 1.7675,-1.0001 0.9846,0 1.1347,0.1449 1.1347,0.3783z"/>
  </g>
 </g>
</svg>
